HIERARCHY
ROOT Hips
{
	OFFSET 0.000000 0.000000 0.000000
	CHANNELS 6 Xposition Yposition Zposition Zrotation Yrotation Xrotation 
	JOINT LHipJoint
	{
		OFFSET 0.000000 0.000000 0.000000
		CHANNELS 3 Zrotation Yrotation Xrotation
		JOINT LeftUpLeg
		{
			OFFSET 1.363060 -1.794630 0.839290
			CHANNELS 3 Zrotation Yrotation Xrotation
			JOINT LeftLeg
			{
				OFFSET 2.448110 -6.726130 0.000000
				CHANNELS 3 Zrotation Yrotation Xrotation
				JOINT LeftFoot
				{
					OFFSET 2.562200 -7.039590 0.000000
					CHANNELS 3 Zrotation Yrotation Xrotation
					JOINT LeftToeBase
					{
						OFFSET 0.157640 -0.433110 2.322550
						CHANNELS 3 Zrotation Yrotation Xrotation
						End Site
						{
							OFFSET 0.000000 0.000000 0.000000
						}
					}
				}
			}
		}
	}
	JOINT RHipJoint
	{
		OFFSET 0.000000 0.000000 0.000000
		CHANNELS 3 Zrotation Yrotation Xrotation
		JOINT RightUpLeg
		{
			OFFSET -1.305520 -1.794630 0.839290
			CHANNELS 3 Zrotation Yrotation Xrotation
			JOINT RightLeg
			{
				OFFSET -2.542530 -6.985550 0.000000
				CHANNELS 3 Zrotation Yrotation Xrotation
				JOINT RightFoot
				{
					OFFSET -2.568260 -7.056230 0.000000
					CHANNELS 3 Zrotation Yrotation Xrotation
					JOINT RightToeBase
					{
						OFFSET -0.164730 -0.452590 2.363150
						CHANNELS 3 Zrotation Yrotation Xrotation
						End Site
						{
							OFFSET 0.000000 0.000000 0.000000
						}
					}
				}
			}
		}
	}
	JOINT LowerBack
	{
		OFFSET 0.000000 0.000000 0.000000
		CHANNELS 3 Zrotation Yrotation Xrotation
		JOINT Spine
		{
			OFFSET 0.028270 2.035590 -0.193380
			CHANNELS 3 Zrotation Yrotation Xrotation
			JOINT Spine1
			{
				OFFSET 0.056720 2.048850 -0.042750
				CHANNELS 3 Zrotation Yrotation Xrotation
				JOINT Neck
				{
					OFFSET 0.000000 0.000000 0.000000
					CHANNELS 3 Zrotation Yrotation Xrotation
					JOINT Neck1
					{
						OFFSET -0.054170 1.746240 0.172020
						CHANNELS 3 Zrotation Yrotation Xrotation
						JOINT Head
						{
							OFFSET 0.104070 1.761360 -0.123970
							CHANNELS 3 Zrotation Yrotation Xrotation
							End Site
							{
								OFFSET 0.000000 0.000000 0.000000
							}
						}
					}
				}
				JOINT LeftShoulder
				{
					OFFSET 0.000000 0.000000 0.000000
					CHANNELS 3 Zrotation Yrotation Xrotation
					JOINT LeftArm
					{
						OFFSET 3.362410 1.200890 -0.311210
						CHANNELS 3 Zrotation Yrotation Xrotation
						JOINT LeftForeArm
						{
							OFFSET 4.983000 -0.000000 -0.000000
							CHANNELS 3 Zrotation Yrotation Xrotation
							JOINT LeftHand
							{
								OFFSET 3.483560 -0.000000 -0.000000
								CHANNELS 3 Zrotation Yrotation Xrotation
								JOINT LeftFingerBase
								{
									OFFSET 0.000000 0.000000 0.000000
									CHANNELS 3 Zrotation Yrotation Xrotation
									JOINT LeftHandIndex1
									{
										OFFSET 0.715260 -0.000000 -0.000000
										CHANNELS 3 Zrotation Yrotation Xrotation
										End Site
										{
											OFFSET 0.000000 0.000000 0.000000
										}
									}
								}
								JOINT LThumb
								{
									OFFSET 0.000000 0.000000 0.000000
									CHANNELS 3 Zrotation Yrotation Xrotation
									End Site
									{
										OFFSET 0.000000 0.000000 0.000000
									}
								}
							}
						}
					}
				}
				JOINT RightShoulder
				{
					OFFSET 0.000000 0.000000 0.000000
					CHANNELS 3 Zrotation Yrotation Xrotation
					JOINT RightArm
					{
						OFFSET -3.136600 1.374050 -0.404650
						CHANNELS 3 Zrotation Yrotation Xrotation
						JOINT RightForeArm
						{
							OFFSET -5.241900 -0.000000 -0.000000
							CHANNELS 3 Zrotation Yrotation Xrotation
							JOINT RightHand
							{
								OFFSET -3.444170 -0.000000 -0.000000
								CHANNELS 3 Zrotation Yrotation Xrotation
								JOINT RightFingerBase
								{
									OFFSET 0.000000 0.000000 0.000000
									CHANNELS 3 Zrotation Yrotation Xrotation
									JOINT RightHandIndex1
									{
										OFFSET -0.622530 -0.000000 -0.000000
										CHANNELS 3 Zrotation Yrotation Xrotation
										End Site
										{
											OFFSET 0.000000 0.000000 0.000000
										}
									}
								}
								JOINT RThumb
								{
									OFFSET 0.000000 0.000000 0.000000
									CHANNELS 3 Zrotation Yrotation Xrotation
									End Site
									{
										OFFSET 0.000000 0.000000 0.000000
									}
								}
							}
						}
					}
				}
			}
		}
	}
}
MOTION
Frames: 6
Frame Time: 0.008333
-0.655281 16.716538 0.136350 -99.029449 84.977233 -81.461771 -8.863426 1.560422 3.861072 -21.062318 -2.659727 -40.070549 -2.991550 -0.109169 21.923743 1.165716 3.440496 -10.434765 -0.123600 -0.000000 -4.415500 11.038620 -5.385222 -1.312939 4.895889 -19.314556 -4.392430 1.443092 -2.316398 30.269328 0.395918 20.609341 25.496605 10.694100 0.000000 -82.867200 -2.463663 0.130571 -3.507947 -1.284458 0.183269 -3.800260 -6.046721 0.189722 -0.533129 10.541917 -7.204638 -6.054185 -2.465104 -0.207971 0.426709 0.000000 0.000000 0.000000 -2.642675 13.354971 0.155044 -69.936176 18.515926 21.453434 -0.139699 -89.669346 -0.019968 5.803969 0.145990 -0.002588 -0.077035 0.231200 -0.000000 0.000000 0.000000 0.000000 0.000000 0.000000 0.000000 9.401443 -0.646122 0.306119 59.239309 28.046228 32.534344 179.645894 85.514241 -179.988657 0.301855 6.113053 0.015597 0.056041 -0.495835 -0.000000 0.000000 0.000000 0.000000 0.000000 0.000000 0.000000 
-0.461147 16.651818 0.106112 -95.238668 84.889074 -77.792134 -8.791456 1.574919 3.951834 -20.778417 -3.599692 -40.731391 -2.732006 0.168326 25.268695 1.443208 4.435457 -12.042191 179.662600 -0.000000 -1.010000 11.245287 -5.248139 -1.406292 4.034790 -19.774537 -5.404506 1.210390 -2.428949 33.202004 0.259738 21.124590 26.566889 11.365900 0.000000 -82.237200 -2.655904 0.107451 -3.533202 -1.318918 0.174613 -3.790797 -6.024142 0.181461 -0.477194 10.757322 -7.062170 -5.931346 -2.409776 -0.205191 0.458555 0.000000 0.000000 0.000000 -3.062123 13.660106 0.144355 -69.714498 18.346163 21.046092 -0.147095 -89.467358 -0.021095 6.171571 0.199907 0.000374 -0.086142 0.228113 -0.000000 0.000000 0.000000 0.000000 0.000000 0.000000 0.000000 9.335227 -0.538854 0.269471 59.048499 28.658219 32.423194 179.651545 85.531285 -179.988502 0.332572 6.169163 0.017572 0.054872 -0.498123 -0.000000 0.000000 0.000000 0.000000 0.000000 0.000000 0.000000 
-0.272890 16.596808 0.072903 -90.156773 84.796579 -72.863719 -8.723262 1.606031 3.981263 -20.593573 -4.308310 -41.184126 -2.500239 0.420096 28.333102 1.710203 5.416394 -13.564667 179.410200 0.000000 -4.795500 11.442457 -5.048913 -1.493581 3.176773 -20.021316 -6.484822 0.948586 -2.528829 36.204841 0.100895 20.921758 27.719358 11.691399 0.000000 -81.302200 -2.839126 0.123419 -3.496432 -1.351424 0.205411 -3.770962 -6.000550 0.212227 -0.422717 10.908823 -6.918654 -5.814120 -2.358201 -0.202515 0.487557 0.000000 0.000000 0.000000 -3.536386 13.992848 0.143701 -69.500849 17.969218 20.584030 -0.157800 -89.125264 -0.022288 6.565670 0.324896 0.007834 -0.096167 0.223792 -0.000000 0.000000 0.000000 0.000000 0.000000 0.000000 0.000000 9.227219 -0.412786 0.223247 58.962313 29.204811 32.303777 179.667471 85.670536 -179.988462 0.362301 6.189224 0.019442 0.053202 -0.498761 -0.000000 0.000000 0.000000 0.000000 0.000000 0.000000 0.000000 
-0.090333 16.552851 0.036651 -83.799569 84.681592 -66.683212 -8.666665 1.659836 3.956558 -20.525284 -4.773088 -41.378341 -2.315060 0.633363 30.925787 1.961879 6.356579 -15.007359 179.125000 -0.000001 -7.205300 11.611793 -4.787542 -1.570984 2.342106 -20.037753 -7.627790 0.667693 -2.613025 39.227273 -0.077346 19.982810 28.882401 11.595900 -0.000001 -80.024600 -3.032502 0.182130 -3.409088 -1.386018 0.280343 -3.744470 -5.978390 0.286299 -0.374175 11.002108 -6.776413 -5.701716 -2.312575 -0.200150 0.514253 0.000000 0.000000 0.000000 -4.041286 14.326882 0.150911 -69.313098 17.415853 20.057143 -0.172039 -88.656053 -0.023547 6.980654 0.514891 0.020387 -0.106624 0.218360 -0.000000 0.000000 0.000000 0.000000 0.000000 0.000000 0.000000 9.093172 -0.268587 0.171886 58.968518 29.667295 32.176366 179.692027 85.913806 -179.988556 0.385700 6.165113 0.020809 0.051294 -0.497771 -0.000000 0.000000 0.000000 0.000000 0.000000 0.000000 0.000000 
0.086983 16.520556 -0.003042 -76.502333 84.520864 -59.571936 -8.639801 1.728735 3.886922 -20.565412 -5.000339 -41.303049 -2.185299 0.801702 32.940972 2.195022 7.227838 -16.387120 178.812500 0.000000 -8.549800 11.727984 -4.478464 -1.632770 1.565362 -19.818209 -8.831923 0.382644 -2.683152 42.215252 -0.272395 18.343870 29.957550 11.035100 -0.000001 -78.390300 -3.247505 0.279125 -3.287539 -1.424479 0.395514 -3.715154 -5.958327 0.399422 -0.334483 11.042560 -6.635319 -5.593522 -2.274392 -0.198254 0.539200 0.000000 0.000000 0.000000 -4.554532 14.639565 0.163904 -69.170431 16.721016 19.462868 -0.189809 -88.077605 -0.024899 7.417515 0.757792 0.037932 -0.117219 0.212122 -0.000000 0.000000 0.000000 0.000000 0.000000 0.000000 0.000000 8.944419 -0.108861 0.118045 59.048873 30.029078 32.039683 179.723221 86.240055 -179.988799 0.398061 6.094041 0.021379 0.049330 -0.495243 -0.000000 0.000000 0.000000 0.000000 0.000000 0.000000 0.000000 
0.259761 16.499952 -0.046690 -68.935483 84.300991 -52.187196 -8.659273 1.792405 3.781037 -20.688068 -5.017260 -40.963116 -2.109541 0.919374 34.338225 2.406583 8.007360 -17.704761 178.481300 -0.000000 -9.080700 11.773736 -4.149664 -1.674608 0.878748 -19.378190 -10.092543 0.111020 -2.746986 45.114534 -0.480825 16.107275 30.829492 10.019500 -0.000000 -76.435500 -3.482846 0.401225 -3.145848 -1.465885 0.537601 -3.685646 -5.939696 0.538252 -0.305726 11.035617 -6.494101 -5.488079 -2.244671 -0.196953 0.563136 0.000000 0.000000 0.000000 -5.056639 14.905984 0.180954 -69.089297 15.927067 18.802616 -0.210689 -87.415832 -0.026382 7.881127 1.036534 0.060269 -0.127777 0.205509 -0.000000 0.000000 0.000000 0.000000 0.000000 0.000000 0.000000 8.789909 0.060016 0.063846 59.179485 30.280874 31.894799 179.758940 86.628280 -179.989207 0.394624 5.978867 0.020950 0.047458 -0.491318 -0.000000 0.000000 0.000000 0.000000 0.000000 0.000000 0.000000 
